# xmcd
#
# Track frame offsets:
#	150
#	12092
#	25024
#	40153
#	53424
#	65530
#	78452
#	94704
#	112850
#	126358
#	137711
#	149246
#	162945
#	176798
#	187093
#
# Disc length: 2625 seconds
#
# Revision: 1
# Processed by: cddbd v1.5.2PL0 Copyright (c) Steve Scherf et al.
# Submitted via: VUPlayer 2.49
#
DISCID=cc0a3f0f
DTITLE=V .A - On the Road Again CD-2
DYEAR=1999
DGENRE=Country
TTITLE0=John Lee Hooker - I'm in the Mood
TTITLE1=Elmore James - Dust My Broom
TTITLE2=Muddy Waters - Hoochie-Coochie Man
TTITLE3=John Lee Hooker - One Bourbon, One Scotch, One Beer
TTITLE4=Howlin Wolf - Spoonfull
TTITLE5=Etta James - At Last
TTITLE6=Muddy Waters - Mannish Boy
TTITLE7=Brook Benton - Rainy Night in Georgia
TTITLE8=Etta James - My Dearest Darling
TTITLE9=Carl Perkins - Be-Bop-A-Lula
TTITLE10=Fats Domino - I Want To Walk You Home
TTITLE11=Gene Vincent - Lotta Lovin'
TTITLE12=Bill Haley and the Comets - Kansas City
TTITLE13=Del Shannon - Runaway
TTITLE14=The Coasters - Poison Ivy
EXTD=
EXTT0=
EXTT1=
EXTT2=
EXTT3=
EXTT4=
EXTT5=
EXTT6=
EXTT7=
EXTT8=
EXTT9=
EXTT10=
EXTT11=
EXTT12=
EXTT13=
EXTT14=
PLAYORDER=
